<svg width="84" height="84" viewBox="0 0 84 84" fill="none" xmlns="http://www.w3.org/2000/svg">
<path d="M10 0C4.48 0 0 4.48 0 10V74C0 79.52 4.48 84 10 84H74C79.52 84 84 79.52 84 74V10C84 4.48 79.52 0 74 0H10ZM16 28H29.4609C30.9209 28 38.8203 27.9006 38.8203 35.1406C38.8203 38.9806 36.1995 40.2794 35.0195 40.8594C36.7795 41.4194 40 43.04 40 48C40 55.66 31.2191 56 30.0391 56H16V28ZM50 28H64V32H50V28ZM22 32.8594V39.4219H28.4414C29.3214 39.4219 32.2383 38.94 32.2383 36C32.2383 33.06 28.4394 32.8594 27.8594 32.8594H22ZM57.4609 34C65.2609 34 67.3792 40.0795 67.6992 41.5195C67.9992 42.9795 68 44.26 68 46H52.1992C52.1992 47.74 53.1213 51.6602 57.7812 51.6602C59.0213 51.6602 59.9389 51.3612 60.8789 50.7812C61.7989 50.2013 62.1219 49.6386 62.4219 49.0586H67.6797C66.7597 51.3586 65.5202 53.1017 63.6602 54.2617C61.8002 55.4217 59.6402 56 57.1602 56C55.6002 56 54.06 55.7011 52.5 55.1211C51.26 54.5411 50.0216 53.6803 49.1016 52.8203C48.1816 51.9403 47.5614 50.7798 46.9414 49.3398C46.3214 48.1798 46 46.44 46 45C46 43.56 46.5809 34 57.4609 34ZM57.4609 38.0586C52.9409 38.0586 52.1992 42.3997 52.1992 42.6797H62.1211C61.8011 41.2397 60.5009 38.0586 57.4609 38.0586ZM22 43.4219V51.1406H28.7031C29.2811 51.1406 33.3594 50.9619 33.3594 47.4219C33.3594 43.9019 30.1551 43.4219 28.7031 43.4219H22Z" fill="#EDEDED"/>
</svg>
