<svg width="84" height="84" viewBox="0 0 84 84" fill="none" xmlns="http://www.w3.org/2000/svg">
<path fill-rule="evenodd" clip-rule="evenodd" d="M10 0C4.47717 0 0 4.47714 0 10V74C0 79.5229 4.47717 84 10 84H74C79.5228 84 84 79.5229 84 74V10C84 4.47714 79.5228 0 74 0H10ZM33.0217 70.4202C33.0217 71.5766 32.318 72.57 31.3134 73C18.3685 68.7397 9 56.5994 9 42.3178C9 24.498 23.5784 10 41.5 10C59.4216 10 74 24.498 74 42.3178C74 56.5994 64.6315 68.7397 51.6866 73C50.682 72.57 49.9783 71.5766 49.9783 70.4202V62.8326C49.9783 59.0387 46.5869 53.5587 42.9131 53.5587V53.5152C50.7654 53.2075 55.7887 50.5701 58.1414 46.5261C63.381 46.5514 67.9861 47.0544 70.6879 47.4844C70.7698 47.0263 70.8405 46.5641 70.9012 46.0976C68.2405 45.676 63.8331 45.1941 58.8225 45.1294C59.0034 44.684 59.156 44.2245 59.2817 43.7524C64.3461 43.484 68.7322 43.6836 71.0934 43.8775C71.1013 43.7322 71.111 43.5875 71.1206 43.4428C71.142 43.1214 71.1635 42.8003 71.1654 42.4738C68.7958 42.2827 64.5171 42.0887 59.5729 42.3304C59.6647 41.6869 59.7283 41.0307 59.7283 40.3506C59.8696 37.8214 59.0217 35.4327 57.4674 33.325C58.174 31.0768 59.3043 26.0184 57.1848 24.0512C53.3695 24.0512 50.6848 25.8779 49.4131 27.002C47.1522 26.0184 44.4674 25.4563 41.5 25.4563C38.5326 25.4563 35.8478 26.0184 33.447 27.0034C32.1753 25.8793 29.4906 24.0526 25.6753 24.0526C23.697 25.8793 24.6862 30.9377 25.3927 33.3264C23.8384 35.4341 22.9906 37.9633 22.9906 40.352C22.9906 41.0995 23.0626 41.8176 23.1742 42.5201C18.3402 42.2967 14.1746 42.4864 11.8445 42.6761C11.8501 43.1482 11.8883 43.6133 11.9165 44.0798C14.2424 43.8887 18.5239 43.6934 23.4851 43.9435C23.601 44.351 23.738 44.7487 23.8964 45.1364C18.9479 45.2306 14.6437 45.7238 12.1045 46.1397C12.1652 46.6048 12.2358 47.0671 12.3179 47.5266C14.891 47.1022 19.4 46.5922 24.5789 46.5331C26.9612 50.6206 32.0779 53.2679 40.0869 53.5236V53.5587C38.178 53.5587 36.3508 55.0426 35.0311 56.9943C33.8978 57.5985 32.0143 57.7741 28.5 57.7741C26.2391 57.7741 24.9674 56.5095 23.6957 54.9639C22.5652 53.4182 20.7283 52.2941 19.8805 52.1536C19.0326 52.1536 18.75 52.5752 19.174 52.8562C20.9985 54.0657 21.7323 55.9983 22.3666 57.6685C22.6165 58.3266 22.851 58.9439 23.1305 59.4603C23.9783 61.1464 25.8152 61.9895 27.9348 61.9895H33.0217C33.0415 61.9853 33.0599 61.981 33.0797 61.9754C33.0443 62.2677 33.0217 62.5557 33.0217 62.8326V70.4202Z" fill="#EDEDED"/>
</svg>
