<svg width="84" height="84" viewBox="0 0 84 84" fill="none" xmlns="http://www.w3.org/2000/svg">
<path d="M74 0H10C4.48 0 0 4.48 0 10V74C0 79.52 4.48 84 10 84H74C79.52 84 84 79.52 84 74V10C84 4.48 79.52 0 74 0ZM26 32V70H14V32H26ZM14 20.94C14 18.14 16.4 16 20 16C23.6 16 25.86 18.14 26 20.94C26 23.74 23.76 26 20 26C16.4 26 14 23.74 14 20.94ZM70 70H58C58 70 58 51.48 58 50C58 46 56 42 51 41.92H50.84C46 41.92 44 46.04 44 50C44 51.82 44 70 44 70H32V32H44V37.12C44 37.12 47.86 32 55.62 32C63.56 32 70 37.46 70 48.52V70Z" fill="#EDEDED"/>
</svg>
