<svg width="84" height="84" viewBox="0 0 84 84" fill="none" xmlns="http://www.w3.org/2000/svg">
<path d="M20 0C8.97733 0 0 8.97733 0 20V64C0 75.0227 8.97733 84 20 84H64C75.0227 84 84 75.0227 84 64V20C84 8.97733 75.0227 0 64 0H20ZM18 24H66C66.36 24 66.6995 24.0406 67.0195 24.1406L47.3594 43.7812C44.3994 46.7413 39.5811 46.7413 36.6211 43.7812L16.9805 24.1406C17.3005 24.0406 17.64 24 18 24ZM14.1406 26.9805L29.1797 42L14.1406 57.0195C14.0406 56.6995 14 56.36 14 56V28C14 27.64 14.0406 27.3005 14.1406 26.9805ZM69.8594 26.9805C69.9594 27.3005 70 27.64 70 28V56C70 56.36 69.9594 56.6995 69.8594 57.0195L54.8008 42L69.8594 26.9805ZM32 44.8203L33.7812 46.6211C36.0412 48.8811 39.0205 50 41.9805 50C44.9605 50 47.9197 48.8811 50.1797 46.6211L51.9805 44.8203L67.0195 59.8594C66.6995 59.9594 66.36 60 66 60H18C17.64 60 17.3005 59.9594 16.9805 59.8594L32 44.8203Z" fill="#EDEDED"/>
</svg>
